<svg enable-background="new 0 0 52 52" height="52" viewBox="0 0 52 52" width="52" xmlns="http://www.w3.org/2000/svg"><g fill="#fff"><path d="m9.7 36.1v-24.8c-2.6 0-4.7 2.1-4.7 4.6v29.4c0 2.6 2.1 4.7 4.7 4.7h23.3c2.6 0 4.7-2.1 4.7-4.6h-18.7c-5.1 0-9.3 0-9.3-9.3z"/><path d="m45.4 15.9h-7.8c-2.6 0-4.7-2.1-4.7-4.6v-7.8c.1-.8-.6-1.5-1.5-1.5h-12.4c-2.6 0-4.7 2.1-4.7 4.6v29.4c0 2.6 2.1 4.6 4.7 4.6h23.3c2.6 0 4.7-2.1 4.7-4.6v-18.5c0-.9-.7-1.6-1.6-1.6z"/><path d="m46.7 9.4-7.2-7.1c-.2-.2-.4-.3-.7-.3-.6 0-1.1.5-1.1 1.1v5.1c0 1.7 1.4 3.1 3.1 3.1h5.1c.6 0 1.1-.5 1.1-1.1 0-.3-.1-.5-.3-.8z"/></g></svg>